# xmcd CD database file
#
# Track frame offsets:
#	150
#	11210
#	23116
#	32673
#	45199
#	61571
#	72587
#	84376
#	97249
#	109065
#	120273
#	130611
#	143469
#	153748
#	163973
#	175866
#	185600
#	195036
#	205914
#	216716
#
# Disc length: 3025 seconds
#
# Revision: 0
# Processed by: cddbd v1.5.2PL0 Copyright (c) Steve Scherf et al.
# Submitted via: CDex 1.95
#
DISCID=100bcf14
DTITLE=Various Artist - This Is Country - The Giants Of Country
DYEAR=2006
DGENRE=Country
TTITLE0=Patsy Cline - Stop The World (Anhd Let Me Off)
TTITLE1=Faron Young - I Heard The Jukebox Playing
TTITLE2=Johnny Cash - Rock Island Line
TTITLE3=Lester Flatt and Earl Scrugg - Doin' My Time
TTITLE4=Roger Miller - Honey
TTITLE5=Johnny Paycheck - Heartbreak Tennessee
TTITLE6=Johnny Cash - You're The Nearest Thing To Heaven
TTITLE7=Jerry Wallace - Shutters And Boards
TTITLE8=Conway Twitty - Crazy Dreams
TTITLE9=Jeannie C. Riley - Box Of Memories
TTITLE10=Johnny Cash - Trail Of Love
TTITLE11=George Jones - I Love You Because
TTITLE12=Jan Howard - I Wish I Could Fall In Love Again
TTITLE13=Dave Dudley - Oh, Lonesome Me
TTITLE14=Johnny Cash - I Walk The Line
TTITLE15=Benny Barnes - Poor Man's Riches
TTITLE16=Jeannie C. Riley - The Girl Most Likely
TTITLE17=Carl Belew - Im I That Easy To Forget
TTITLE18=Roger Miller - King Of The Road
TTITLE19=Johnny Paycheck - A-11
EXTD=YEAR: 2006
EXTT0=
EXTT1=
EXTT2=
EXTT3=
EXTT4=
EXTT5=
EXTT6=
EXTT7=
EXTT8=
EXTT9=
EXTT10=
EXTT11=
EXTT12=
EXTT13=
EXTT14=
EXTT15=
EXTT16=
EXTT17=
EXTT18=
EXTT19=
PLAYORDER=
